0
SECTION
2
HEADER
9
$INSUNITS
70
4
9
$ACADVER
1
AC1014
9
$HANDSEED
5
FFFF
0
ENDSEC
0
SECTION
2
TABLES
0
TABLE
2
VPORT
5
8
100
AcDbSymbolTable
0
ENDTAB
0
TABLE
2
LTYPE
5
5
100
AcDbSymbolTable
0
LTYPE
5
14
100
AcDbSymbolTableRecord
100
AcDbLinetypeTableRecord
2
BYBLOCK
70
0
0
LTYPE
5
15
100
AcDbSymbolTableRecord
100
AcDbLinetypeTableRecord
2
BYLAYER
70
0
0
ENDTAB
0
TABLE
2
LAYER
5
2
100
AcDbSymbolTable
70
2
0
LAYER
5
50
100
AcDbSymbolTableRecord
100
AcDbLayerTableRecord
2
0
70
0
6
CONTINUOUS
0
ENDTAB
0
TABLE
2
STYLE
5
3
100
AcDbSymbolTable
70
1
0
STYLE
5
11
100
AcDbSymbolTableRecord
100
AcDbTextStyleTableRecord
2
STANDARD
70
0
0
ENDTAB
0
TABLE
2
VIEW
5
6
100
AcDbSymbolTable
70
0
0
ENDTAB
0
TABLE
2
UCS
5
7
100
AcDbSymbolTable
70
0
0
ENDTAB
0
TABLE
2
APPID
5
9
100
AcDbSymbolTable
70
2
0
APPID
5
12
100
AcDbSymbolTableRecord
100
AcDbRegAppTableRecord
2
ACAD
70
0
0
ENDTAB
0
TABLE
2
DIMSTYLE
5
A
100
AcDbSymbolTable
70
1
0
ENDTAB
0
TABLE
2
BLOCK_RECORD
5
1
100
AcDbSymbolTable
70
1
0
BLOCK_RECORD
5
1F
100
AcDbSymbolTableRecord
100
AcDbBlockTableRecord
2
*MODEL_SPACE
0
BLOCK_RECORD
5
1B
100
AcDbSymbolTableRecord
100
AcDbBlockTableRecord
2
*PAPER_SPACE
0
ENDTAB
0
ENDSEC
0
SECTION
2
BLOCKS
0
BLOCK
5
20
100
AcDbEntity
100
AcDbBlockBegin
2
*MODEL_SPACE
0
ENDBLK
5
21
100
AcDbEntity
100
AcDbBlockEnd
0
BLOCK
5
1C
100
AcDbEntity
100
AcDbBlockBegin
2
*PAPER_SPACE
0
ENDBLK
5
1D
100
AcDbEntity
100
AcDbBlockEnd
0
ENDSEC
0
SECTION
2
ENTITIES
0
LWPOLYLINE
5
100
100
AcDbEntity
8
0
100
AcDbPolyline
90
32
70
1
43
0.0
10
-6.7588263654059277
20
26.341466602802676
42
-0.93162459817554222
10
-13.84701770539982
20
23.405441617081681
42
0.027415437299958996
10
-16.324784195887098
20
21.749850978385826
42
-0.93162459817554477
10
-21.74985097838583
20
16.32478419588708
42
0.027415437299959249
10
-23.405441617081692
20
13.847017705399811
42
-0.93162459817554089
10
-26.341466602802686
20
6.7588263654059126
42
0.027415437299960009
10
-26.92283272293222
20
3.8361015102947404
42
-0.93162459817554222
10
-26.922832722932213
20
-3.8361015102947498
42
0.027415437299961282
10
-26.341466602802676
20
-6.7588263654059286
42
-0.93162459817554266
10
-23.405441617081685
20
-13.847017705399821
42
0.027415437299963312
10
-21.749850978385822
20
-16.324784195887084
42
-0.93162459817554333
10
-16.32478419588708
20
-21.74985097838583
42
0.027415437299964325
10
-13.8470177053998
20
-23.405441617081685
42
-0.93162459817554188
10
-6.7588263654059011
20
-26.341466602802686
42
0.027415437299965852
10
-3.8361015102947422
20
-26.922832722932213
42
-0.93162459817554188
10
3.8361015102947489
20
-26.922832722932213
42
0.027415437299966611
10
6.7588263654059109
20
-26.341466602802676
42
-0.93162459817554144
10
13.847017705399809
20
-23.405441617081692
42
0.027415437299966865
10
16.324784195887087
20
-21.749850978385826
42
-0.93162459817554377
10
21.749850978385833
20
-16.32478419588708
42
0.027415437299966865
10
23.405441617081696
20
-13.847017705399804
42
-0.93162459817554222
10
26.341466602802686
20
-6.7588263654059046
42
0.027415437299965852
10
26.922832722932213
20
-3.8361015102947422
42
-0.93162459817554144
10
26.92283272293222
20
3.8361015102947467
42
0.027415437299964578
10
26.341466602802683
20
6.7588263654059064
42
-0.93162459817554044
10
23.405441617081696
20
13.847017705399807
42
0.027415437299962802
10
21.749850978385822
20
16.324784195887084
42
-0.93162459817554288
10
16.324784195887084
20
21.749850978385822
42
0.027415437299961029
10
13.847017705399807
20
23.405441617081699
42
-0.93162459817554266
10
6.7588263654059046
20
26.341466602802683
42
0.027415437299959756
10
3.8361015102947431
20
26.922832722932213
42
-0.93162459817554144
10
-3.8361015102947436
20
26.922832722932213
42
0.027415437299959756
0
CIRCLE
5
101
100
AcDbEntity
8
0
100
AcDbCircle
10
-4.5112928687850803e-15
20
-13.698591419218801
30
0
40
6.3297744995234142
210
0
220
-0
230
1
0
CIRCLE
5
102
100
AcDbEntity
8
0
100
AcDbCircle
10
-8.2061285589240144e-15
20
13.698591419218801
30
0
40
6.3297744995234142
210
0
220
-0
230
1
0
LWPOLYLINE
5
103
100
AcDbEntity
8
0
100
AcDbPolyline
90
12
70
1
43
0.0
10
-0.63132322976509814
20
-1.9976810271289669
42
-0.22069045727047051
10
0.63132322976512167
20
-1.9976810271289269
10
13.137841845374627
20
-7.8004387776529569
42
0.54799619241330544
10
15.269165075139696
20
-6.4397657899152705
10
15.2691650751397
20
6.4397657899141763
42
0.54799619241328312
10
13.137841845374723
20
7.8004387776519053
10
0.63132322976502864
20
1.9976810271288326
42
-0.22069045727043662
10
-0.63132322976501509
20
1.9976810271288759
10
-13.137841845371954
20
7.8004387776516717
42
0.54799619241330455
10
-15.269165075137019
20
6.4397657899139817
10
-15.269165075137021
20
-6.4397657899150182
42
0.54799619241332476
10
-13.13784184537187
20
-7.8004387776526682
0
ENDSEC
0
SECTION
2
OBJECTS
0
DICTIONARY
5
C
100
AcDbDictionary
3
ACAD_GROUP
350
D
3
ACAD_MLINESTYLE
350
17
0
DICTIONARY
5
D
100
AcDbDictionary
0
DICTIONARY
5
1A
330
C
100
AcDbDictionary
0
DICTIONARY
5
17
100
AcDbDictionary
0
ENDSEC
0
EOF
